<?xml version="1.0" encoding="utf-8"?><svg xmlns="http://www.w3.org/2000/svg" xmlns:xlink="http://www.w3.org/1999/xlink"><symbol viewbox="0 0 28 28" id="icon-arrow" xmlns="http://www.w3.org/2000/svg"><circle cx="14" cy="14" r="14"/><path d="M8 13.2h11v1.6H8z"/><path d="M15 9l4 5-4 5" stroke="#fff" stroke-width="1.6"/></symbol><symbol viewbox="0 0 6 10" id="icon-arrow-min" xmlns="http://www.w3.org/2000/svg"><path d="M1 9l4-4-4-4" stroke="#40375C"/></symbol><symbol viewbox="0 0 11 5" id="icon-check" xmlns="http://www.w3.org/2000/svg"><path transform="scale(.99834 1.00166) rotate(45 -2.46 2.011)" stroke="#40375C" d="M0-.5h3.765"/><path transform="matrix(.70593 -.70828 .70593 .70828 3.358 5)" stroke="#40375C" d="M0-.5h5.647"/><path transform="matrix(.70593 -.70828 .70593 .70828 6.016 5)" stroke="#40375C" d="M0-.5h5.647"/></symbol><symbol viewbox="0 0 22 22" id="icon-delete" xmlns="http://www.w3.org/2000/svg"><circle cx="11" cy="11" r="10.25" stroke="#40375C" stroke-width="1.5"/></symbol><symbol viewbox="0 0 22 22" id="icon-file" xmlns="http://www.w3.org/2000/svg"><path clip-rule="evenodd" d="M4 1.5h14A2.5 2.5 0 0120.5 4v8H16a4 4 0 00-4 4v4.5H4A2.5 2.5 0 011.5 18V4A2.5 2.5 0 014 1.5zM12 22H4a4 4 0 01-4-4V4a4 4 0 014-4h14a4 4 0 014 4v14a4 4 0 01-4 4h-6z"/></symbol><symbol viewbox="0 0 22 22" id="icon-image" xmlns="http://www.w3.org/2000/svg"><path clip-rule="evenodd" d="M4 1.5h14A2.5 2.5 0 0120.5 4v10l-5.98-1.595A11.998 11.998 0 0011.427 12h-.856c-1.043 0-2.083.136-3.091.405L1.5 14V4A2.5 2.5 0 014 1.5zM0 4a4 4 0 014-4h14a4 4 0 014 4v14a4 4 0 01-4 4H4a4 4 0 01-4-4V4zm8 2a2 2 0 11-4 0 2 2 0 014 0z"/></symbol><symbol viewbox="0 0 22 22" id="icon-location" xmlns="http://www.w3.org/2000/svg"><path clip-rule="evenodd" d="M20.5 11a9.5 9.5 0 11-19 0 9.5 9.5 0 0119 0zm1.5 0c0 6.075-4.925 11-11 11S0 17.075 0 11 4.925 0 11 0s11 4.925 11 11zm-11 3a3 3 0 100-6 3 3 0 000 6z"/></symbol><symbol viewbox="0 0 22 19" id="icon-pencil" xmlns="http://www.w3.org/2000/svg"><path d="M0 19h22v-1.5H0z"/><path clip-rule="evenodd" d="M16.26 0L19 2.74l-2.055 2.055-2.74-2.74L16.26 0zm-2.74 2.74l2.74 2.74L6.74 15H4v-2.74l9.52-9.52z"/></symbol><symbol viewbox="0 0 32 32" id="icon-pick" xmlns="http://www.w3.org/2000/svg"><path clip-rule="evenodd" d="M7.187 13.5l7.576-7.576.943.943-7.577 7.576-.942-.943zM9.7 16.014l7.577-7.576.943.943-7.576 7.576-.943-.943zM15.043 21.357l7.577-7.576.942.942-7.576 7.576-.943-.942zM17.557 23.87l7.576-7.576.943.943-7.576 7.576-.943-.942z"/><path clip-rule="evenodd" d="M17.557 23.87c-2.615 2.616-6.845 2.625-9.449.022-2.603-2.604-2.594-6.834.021-9.45l-.942-.942c-3.139 3.138-3.15 8.215-.026 11.339 3.125 3.124 8.201 3.113 11.34-.025l-.944-.943zM22.62 13.78l.942.943c2.441-2.44 2.45-6.389.02-8.819-2.43-2.43-6.379-2.421-8.82.02l.944.943c1.917-1.918 5.02-1.925 6.929-.016 1.91 1.91 1.902 5.012-.016 6.93z"/><path clip-rule="evenodd" d="M9.7 16.014c-1.743 1.744-1.749 4.564-.013 6.3 1.735 1.735 4.556 1.73 6.3-.014l-.944-.943a3.118 3.118 0 01-4.41.01 3.118 3.118 0 01.01-4.41l-.942-.943z"/></symbol><symbol viewbox="0 0 3 16" id="icon-points" xmlns="http://www.w3.org/2000/svg"><circle cx="1.5" cy="2" r="1.5"/><circle cx="1.5" cy="8" r="1.5"/><circle cx="1.5" cy="14" r="1.5"/></symbol><symbol viewbox="0 0 20 20" id="icon-search" xmlns="http://www.w3.org/2000/svg"><path clip-rule="evenodd" d="M11.592 11.414a3.667 3.667 0 11-5.185-5.186 3.667 3.667 0 015.185 5.186zm.44 1.383a5.001 5.001 0 11.943-.943l3.567 3.567-.943.942-3.566-3.566z"/></symbol></svg>